# xmcd CD database file
#
# Track frame offsets:
#	150
#	21206
#	44362
#	62386
#	71864
#	89165
#	116095
#	128997
#	153433
#	170684
#	182611
#	196026
#	208099
#	225691
#	244083
#	263314
#	288039
#	299672
#	315561
#	336805
#
# Disc length: 4699 seconds
#
# Revision: 0
# Processed by: cddbd v1.4PL0 Copyright (c) Steve Scherf et al.
# Submitted via: CDex 1.50beta10
#
DISCID=27125914
DTITLE=J. C. Burris - Blues Professor
DYEAR=2001
DGENRE=Blues
TTITLE0=Hold Me Tight
TTITLE1=Loneliness
TTITLE2=River Of Life
TTITLE3=Mr. Jack's Dance
TTITLE4=One Of These Mornings
TTITLE5=Inflation Blues
TTITLE6=Hand Jive
TTITLE7=You Got To Roam
TTITLE8=Highway Blues
TTITLE9=Blues Professor
TTITLE10=Where Am I Bound
TTITLE11=Moving On
TTITLE12=Raining In Your Life
TTITLE13=One Way Trip
TTITLE14=Holdin' On
TTITLE15=Christmas Time Once Again
TTITLE16=City By The Bay
TTITLE17=Way Down South
TTITLE18=Blues Calling On You
TTITLE19=Wailing And Sailing
EXTD=YEAR: 2001
EXTT0=
EXTT1=
EXTT2=
EXTT3=
EXTT4=
EXTT5=
EXTT6=
EXTT7=
EXTT8=
EXTT9=
EXTT10=
EXTT11=
EXTT12=
EXTT13=
EXTT14=
EXTT15=
EXTT16=
EXTT17=
EXTT18=
EXTT19=
PLAYORDER=
